<?xml version="1.0" encoding="utf-8"?>
<?xml-stylesheet type="text/xsl" href="rss1.xsl"?>
<rss version="2.0" xmlns:atom="http://www.w3.org/2005/Atom" xmlns:content="http://purl.org/rss/1.0/modules/content/" xmlns:dc="http://purl.org/dc/elements/1.1/" xmlns:media="http://search.yahoo.com/mrss/">
<channel>
 <title>Getty</title>
 <link>http://www.gettyimg.com/</link>
 <atom:link href="http://www.gettyimg.com/" rel="self" type="application/rss+xml" />

 
                <item>
                <title><![CDATA[【Music Videos】PACK - CeCe Peniston - Finally (1991)]]></title>
                <link><![CDATA[https://sharemania.us/threads/cece-peniston-finally-1991.224946/]]></link>
                <description><![CDATA[<article>
<blockquote class="messageText SelectQuoteContainer ugc baseHtml">
<div style="text-align: center"><img src="https://i.postimg.cc/cH9JGxBx/Ce-Ce-Peniston-Finally-1991.jpg" class="bbCodeImage LbImage" alt="[​IMG]" data-url="https://i.postimg.cc/cH9JGxBx/Ce-Ce-Peniston-Finally-1991.jpg" style=""> <br>
<img src="https://i.postimg.cc/nc1PFXQG/Ce-Ce-Peniston-Finally-1991-Director-Claude-Borenzweig-sharemania-us-mp4-thumbs.jpg" class="bbCodeImage LbImage" alt="[​IMG]" data-url="https://i.postimg.cc/nc1PFXQG/Ce-Ce-Peniston-Finally-1991-Director-Claude-Borenzweig-sharemania-us-mp4-thumbs.jpg" style=""> <br>
<img src="https://i.postimg.cc/7ZYQfq38/Ce-Ce-Peniston-Finally-Classic-Funk-Remix-1991-Director-Claude-Borenzweig-sharemania-us-mp4-t.jpg" class="bbCodeImage LbImage" alt="[​IMG]" data-url="https://i.postimg.cc/7ZYQfq38/Ce-Ce-Peniston-Finally-Classic-Funk-Remix-1991-Director-Claude-Borenzweig-sharemania-us-mp4-t.jpg" style=""> <br>
<span style="font-size: 9px">1991 Copyright ALL RIGHTS RESERVED TO THE AUTHORS</span><br>
<div class="bbCodeBlock bbCodeVfcHH HiddenContent">
<div class="attribution type">Hidden Content:</div>
<blockquote>You must either reply or click 'Like' to see the hidden information contained here.</blockquote>
</div><br>
<br>
​</div>
<div class="messageTextEndMarker">&nbsp;</div>
</blockquote>
</article>]]></description>
                <author><![CDATA[Fan Made]]></author>
                </item>

                
                <item>
                <title><![CDATA[【Apple Music】WEB-RiP - Inna - No Help (1080p)]]></title>
                <link><![CDATA[https://sharemania.us/threads/inna-no-help-1080p.224945/]]></link>
                <description><![CDATA[<article>
<blockquote class="messageText SelectQuoteContainer ugc baseHtml">
<img src="https://i.imgur.com/qiBCUNs.jpg" class="bbCodeImage LbImage" alt="[​IMG]" data-url="https://i.imgur.com/qiBCUNs.jpg" style=""><br>
<br>
<div class="bbCodeBlock bbCodeCode">
<div class="type">Code:</div>
<pre>General
Complete name                  : C:\Users\asus\Desktop\Inna - No Help.mp4
Format                         : MPEG-4
Format profile                 : Base Media
Codec ID                       : isom (isom/iso2/avc1/mp41)
File size                      : 146 MiB
Duration                       : 2 min 58 s
Overall bit rate               : 6 868 kb/s
Frame rate                     : 24.000 FPS
Movie name                     : No Help
Performer                      : Inna
Genre                          : Dance
ContentType                    : Music Video
Recorded date                  : 2018-10-23 07:00:00 UTC
Writing application            : Lavf57.29.101
Copyright                      : ℗ 2018 Global Records

Video
ID                             : 1
Format                         : AVC
Format/Info                    : Advanced Video Codec
Format profile                 : High@L4
Format settings                : CABAC / 4 Ref Frames
Format settings, CABAC         : Yes
Format settings, Reference fra : 4 frames
Codec ID                       : avc1
Codec ID/Info                  : Advanced Video Coding
Duration                       : 2 min 58 s
Bit rate                       : 6 610 kb/s
Width                          : 1 920 pixels
Height                         : 1 080 pixels
Display aspect ratio           : 16:9
Frame rate mode                : Constant
Frame rate                     : 24.000 FPS
Color space                    : YUV
Chroma subsampling             : 4:2:0
Bit depth                      : 8 bits
Scan type                      : Progressive
Bits/(Pixel*Frame)             : 0.133
Stream size                    : 140 MiB (96%)
Color range                    : Limited
Color primaries                : BT.709
Transfer characteristics       : BT.709
Matrix coefficients            : BT.709
Codec configuration box        : avcC

Audio
ID                             : 2
Format                         : AAC LC
Format/Info                    : Advanced Audio Codec Low Complexity
Codec ID                       : mp4a-40-2
Duration                       : 2 min 58 s
Bit rate mode                  : Constant
Bit rate                       : 255 kb/s
Channel(s)                     : 2 channels
Channel layout                 : L R
Sampling rate                  : 48.0 kHz
Frame rate                     : 46.875 FPS (1024 SPF)
Compression mode               : Lossy
Stream size                    : 5.41 MiB (4%)
Default                        : Yes
Alternate group                : 1

</pre>
</div>
<div class="bbCodeBlock bbCodeVfcHH HiddenContent">
<div class="attribution type">Hidden Content:</div>
<blockquote>You must either reply or click 'Like' to see the hidden information contained here.</blockquote>
</div>
<div class="messageTextEndMarker">&nbsp;</div>
</blockquote>
</article>]]></description>
                <author><![CDATA[vitalya3]]></author>
                </item>

                </channel></rss>